<?xml version="1.0" encoding="UTF-8"?>
<svg xmlns="http://www.w3.org/2000/svg" xmlns:xlink="http://www.w3.org/1999/xlink" width="577pt" height="577pt" viewBox="0 0 577 577" version="1.1">
<g id="surface1">
<path style=" stroke:none;fill-rule:nonzero;fill:rgb(13.299561%,12.199402%,12.199402%);fill-opacity:1;" d="M 360.90625 331.097656 C 360.90625 330.867188 360.890625 330.671875 360.828125 330.488281 C 360.585938 329.707031 359.925781 329.0625 358.945313 329.0625 C 357.660156 329.0625 356.742188 330.148438 356.742188 331.863281 C 356.742188 333.316406 357.476563 334.523438 358.929688 334.523438 C 359.757813 334.523438 360.507813 334.003906 360.800781 333.144531 C 360.875 332.917969 360.90625 332.660156 360.90625 332.429688 Z M 362.234375 334.511719 C 362.234375 336.210938 361.898438 337.246094 361.179688 337.890625 C 360.464844 338.5625 359.421875 338.777344 358.488281 338.777344 C 357.601563 338.777344 356.621094 338.5625 356.023438 338.164063 L 356.359375 337.140625 C 356.851563 337.449219 357.617188 337.722656 358.535156 337.722656 C 359.910156 337.722656 360.921875 337.003906 360.921875 335.136719 L 360.921875 334.3125 L 360.890625 334.3125 C 360.476563 334.996094 359.679688 335.550781 358.535156 335.550781 C 356.699219 335.550781 355.382813 333.988281 355.382813 331.9375 C 355.382813 329.433594 357.019531 328.011719 358.71875 328.011719 C 360.003906 328.011719 360.707031 328.679688 361.027344 329.292969 L 361.058594 329.292969 L 361.117188 328.179688 L 362.296875 328.179688 C 362.265625 328.710938 362.234375 329.308594 362.234375 330.210938 "/>
<path style=" stroke:none;fill-rule:nonzero;fill:rgb(13.299561%,12.199402%,12.199402%);fill-opacity:1;" d="M 369.902344 331.800781 C 368.433594 331.773438 366.765625 332.03125 366.765625 333.46875 C 366.765625 334.339844 367.347656 334.753906 368.035156 334.753906 C 369 334.753906 369.613281 334.144531 369.824219 333.515625 C 369.871094 333.375 369.902344 333.226563 369.902344 333.085938 Z M 368.96875 324.980469 L 370.4375 327.167969 L 369.398438 327.167969 L 368.511719 325.714844 L 368.480469 325.714844 L 367.59375 327.167969 L 366.597656 327.167969 L 368.035156 324.980469 Z M 371.203125 333.804688 C 371.203125 334.449219 371.234375 335.078125 371.324219 335.582031 L 370.101563 335.582031 L 369.992188 334.648438 L 369.949219 334.648438 C 369.535156 335.230469 368.738281 335.75 367.683594 335.75 C 366.183594 335.75 365.417969 334.691406 365.417969 333.625 C 365.417969 331.832031 367.011719 330.851563 369.871094 330.867188 L 369.871094 330.714844 C 369.871094 330.105469 369.703125 329.003906 368.191406 329.003906 C 367.5 329.003906 366.78125 329.21875 366.261719 329.554688 L 365.957031 328.664063 C 366.566406 328.269531 367.457031 328.011719 368.386719 328.011719 C 370.652344 328.011719 371.203125 329.554688 371.203125 331.035156 "/>
<path style=" stroke:none;fill-rule:nonzero;fill:rgb(13.299561%,12.199402%,12.199402%);fill-opacity:1;" d="M 376.46875 326.402344 L 376.46875 328.175781 L 378.398438 328.175781 L 378.398438 329.203125 L 376.46875 329.203125 L 376.46875 333.195313 C 376.46875 334.113281 376.726563 334.632813 377.476563 334.632813 C 377.84375 334.632813 378.058594 334.601563 378.257813 334.539063 L 378.320313 335.550781 C 378.058594 335.65625 377.644531 335.75 377.128906 335.75 C 376.5 335.75 375.992188 335.53125 375.671875 335.167969 C 375.289063 334.769531 375.152344 334.113281 375.152344 333.238281 L 375.152344 329.203125 L 374.003906 329.203125 L 374.003906 328.175781 L 375.152344 328.175781 L 375.152344 326.816406 "/>
<path style=" stroke:none;fill-rule:nonzero;fill:rgb(13.299561%,12.199402%,12.199402%);fill-opacity:1;" d="M 386.046875 331.160156 C 386.0625 330.304688 385.695313 328.972656 384.179688 328.972656 C 382.816406 328.972656 382.222656 330.226563 382.113281 331.160156 Z M 382.101563 332.121094 C 382.128906 333.941406 383.292969 334.691406 384.640625 334.691406 C 385.601563 334.691406 386.183594 334.523438 386.691406 334.308594 L 386.917969 335.273438 C 386.445313 335.488281 385.632813 335.75 384.453125 335.75 C 382.175781 335.75 380.8125 334.234375 380.8125 332.003906 C 380.8125 329.765625 382.128906 328.011719 384.285156 328.011719 C 386.703125 328.011719 387.347656 330.132813 387.347656 331.496094 C 387.347656 331.769531 387.316406 331.984375 387.304688 332.121094 "/>
<path style=" stroke:none;fill-rule:nonzero;fill:rgb(13.299561%,12.199402%,12.199402%);fill-opacity:1;" d="M 394.445313 331.800781 C 392.976563 331.773438 391.3125 332.03125 391.3125 333.46875 C 391.3125 334.339844 391.890625 334.753906 392.582031 334.753906 C 393.546875 334.753906 394.15625 334.144531 394.371094 333.515625 C 394.414063 333.375 394.445313 333.226563 394.445313 333.085938 Z M 395.746094 333.804688 C 395.746094 334.449219 395.777344 335.078125 395.871094 335.582031 L 394.648438 335.582031 L 394.539063 334.648438 L 394.492188 334.648438 C 394.082031 335.230469 393.285156 335.75 392.226563 335.75 C 390.730469 335.75 389.964844 334.691406 389.964844 333.625 C 389.964844 331.832031 391.554688 330.851563 394.414063 330.867188 L 394.414063 330.714844 C 394.414063 330.105469 394.25 329.003906 392.734375 329.003906 C 392.042969 329.003906 391.324219 329.21875 390.804688 329.554688 L 390.5 328.664063 C 391.109375 328.269531 392 328.011719 392.933594 328.011719 C 395.195313 328.011719 395.746094 329.554688 395.746094 331.035156 "/>
<path style=" stroke:none;fill-rule:nonzero;fill:rgb(13.299561%,12.199402%,12.199402%);fill-opacity:1;" d="M 405.648438 333.5625 C 405.648438 334.324219 405.664063 335 405.710938 335.582031 L 404.515625 335.582031 L 404.4375 334.371094 L 404.410156 334.371094 C 404.054688 334.96875 403.277344 335.75 401.960938 335.75 C 400.796875 335.75 399.402344 335.105469 399.402344 332.503906 L 399.402344 328.175781 L 400.753906 328.175781 L 400.753906 332.277344 C 400.753906 333.683594 401.179688 334.632813 402.402344 334.632813 C 403.308594 334.632813 403.933594 334.003906 404.179688 333.410156 C 404.257813 333.210938 404.300781 332.964844 404.300781 332.71875 L 404.300781 328.175781 L 405.648438 328.175781 "/>
<path style=" stroke:none;fill-rule:nonzero;fill:rgb(13.299561%,12.199402%,12.199402%);fill-opacity:1;" d="M 184.679688 298.667969 C 196.050781 295.300781 195.152344 284.230469 195.152344 284.230469 C 195.152344 284.230469 193.882813 267.550781 171.367188 263.285156 L 175.332031 255.582031 C 203.683594 260.445313 206.746094 280.941406 206.746094 280.941406 C 206.746094 280.941406 210.5625 307.121094 176.078125 315.050781 L 171.289063 271.738281 L 181.316406 273.085938 "/>
<path style=" stroke:none;fill-rule:nonzero;fill:rgb(13.299561%,12.199402%,12.199402%);fill-opacity:1;" d="M 273.046875 278.394531 C 269.605469 278.320313 266.015625 280.042969 266.316406 282.585938 C 266.613281 285.578125 268.035156 287.449219 272.746094 287.898438 C 277.460938 288.347656 286.589844 289.992188 286.960938 300.3125 C 287.410156 311.085938 277.683594 314.300781 273.121094 315.273438 C 273.121094 315.273438 268.636719 316.246094 259.808594 315.796875 L 259.058594 307.121094 C 264.519531 306.222656 268.035156 306.222656 268.035156 306.222656 C 271.476563 306.222656 276.191406 304.652344 276.191406 302.035156 C 276.191406 299.414063 275.292969 296.949219 268.410156 296.5 C 261.527344 296.125 255.917969 291.636719 255.84375 283.484375 C 255.769531 275.554688 259.808594 270.394531 269.007813 269.269531 C 269.007813 269.269531 278.507813 268.148438 283.59375 269.570313 L 281.726563 278.472656 C 276.488281 278.246094 273.046875 278.394531 273.046875 278.394531 "/>
<path style=" stroke:none;fill-rule:nonzero;fill:rgb(13.299561%,12.199402%,12.199402%);fill-opacity:1;" d="M 299.015625 314.976563 L 309.5625 313.328125 L 308.367188 270.09375 L 298.714844 270.394531 Z M 296.171875 258.273438 C 296.171875 254.460938 299.238281 251.316406 303.128906 251.316406 C 306.945313 251.316406 310.085938 254.460938 310.085938 258.273438 C 310.085938 262.089844 306.945313 265.230469 303.128906 265.230469 C 299.238281 265.230469 296.171875 262.089844 296.171875 258.273438 "/>
<path style=" stroke:none;fill-rule:nonzero;fill:rgb(13.299561%,12.199402%,12.199402%);fill-opacity:1;" d="M 375.191406 258.085938 C 375.191406 254.269531 378.257813 251.128906 382.148438 251.128906 C 385.964844 251.128906 389.105469 254.269531 389.105469 258.085938 C 389.105469 261.898438 385.964844 265.039063 382.148438 265.039063 C 378.257813 265.039063 375.191406 261.898438 375.191406 258.085938 "/>
<path style=" stroke:none;fill-rule:nonzero;fill:rgb(13.299561%,12.199402%,12.199402%);fill-opacity:1;" d="M 329.695313 314.675781 L 320.046875 314.078125 L 319.597656 270.765625 C 327.75 265.15625 334.335938 265.605469 334.335938 265.605469 C 340.84375 266.054688 350.191406 267.773438 351.089844 279.96875 C 351.089844 279.96875 351.914063 292.234375 344.433594 295.601563 L 358.71875 322.90625 L 350.792969 325.449219 L 332.089844 294.703125 C 340.769531 287.597656 340.691406 281.238281 340.691406 281.238281 C 340.617188 276.226563 337.253906 274.882813 334.785156 275.40625 C 334.785156 275.40625 332.238281 275.929688 329.324219 277.050781 "/>
<path style=" stroke:none;fill-rule:nonzero;fill:rgb(13.299561%,12.199402%,12.199402%);fill-opacity:1;" d="M 398.976563 270.167969 L 397.480469 280.566406 L 379.902344 280.117188 L 379.003906 286.925781 L 396.433594 288.421875 L 395.460938 298.144531 L 377.882813 296.421875 L 377.285156 301.359375 L 397.554688 306.375 L 395.761719 317.21875 L 365.988281 307.941406 L 371.671875 268.746094 "/>
<path style=" stroke:none;fill-rule:nonzero;fill:rgb(13.299561%,12.199402%,12.199402%);fill-opacity:1;" d="M 217.40625 287.65625 L 214.464844 307.945313 L 244.238281 317.21875 L 246.03125 306.375 L 225.761719 301.359375 L 226.359375 296.425781 L 243.9375 298.144531 L 244.910156 288.421875 L 227.480469 286.925781 L 228.074219 282.421875 C 224.800781 282.777344 220.375 283.902344 217.40625 287.65625 "/>
<path style=" stroke:none;fill-rule:nonzero;fill:rgb(0%,0%,0%);fill-opacity:1;" d="M 245.9375 271.847656 C 244.179688 273.277344 241.703125 273.890625 241.703125 273.890625 C 236.039063 275.34375 228.113281 273.335938 223.117188 273.308594 C 222.125 273.308594 221.238281 273.417969 220.457031 273.597656 C 220.457031 273.597656 216.964844 271.847656 218.75 267.347656 C 218.75 267.347656 220.765625 263.339844 225.53125 263.5 C 230.304688 263.660156 239.105469 265.082031 243.382813 261.949219 C 243.382813 261.949219 247.59375 261.382813 247.960938 265.886719 C 248.328125 270.390625 245.9375 271.847656 245.9375 271.847656 "/>
<path style="fill:none;stroke-width:16.5;stroke-linecap:butt;stroke-linejoin:miter;stroke:rgb(100%,100%,100%);stroke-opacity:1;stroke-miterlimit:4;" d="M 2459.375 3051.523438 C 2441.796875 3037.226563 2417.03125 3031.09375 2417.03125 3031.09375 C 2360.390625 3016.5625 2281.132813 3036.640625 2231.171875 3036.914063 C 2221.25 3036.914063 2212.382813 3035.820313 2204.570313 3034.023438 C 2204.570313 3034.023438 2169.648438 3051.523438 2187.5 3096.523438 C 2187.5 3096.523438 2207.65625 3136.601563 2255.3125 3135 C 2303.046875 3133.398438 2391.054688 3119.179688 2433.828125 3150.507813 C 2433.828125 3150.507813 2475.9375 3156.171875 2479.609375 3111.132813 C 2483.28125 3066.09375 2459.375 3051.523438 2459.375 3051.523438 Z M 2459.375 3051.523438 " transform="matrix(0.1,0,0,-0.1,0,577)"/>
<path style=" stroke:none;fill-rule:nonzero;fill:rgb(0%,0%,0%);fill-opacity:1;" d="M 243.382813 261.949219 C 239.101563 265.082031 230.304688 263.660156 225.53125 263.5 C 225.15625 263.488281 224.800781 263.5 224.460938 263.535156 C 224.460938 263.535156 220.6875 260.105469 225.734375 256.449219 C 225.734375 256.449219 227.980469 254.640625 232.140625 254.808594 C 237.601563 255.03125 242.09375 251.382813 238.308594 246.460938 C 238.308594 246.460938 244.980469 248.710938 246.054688 254.433594 C 247.132813 260.15625 243.382813 261.949219 243.382813 261.949219 "/>
<path style="fill:none;stroke-width:16.5;stroke-linecap:butt;stroke-linejoin:miter;stroke:rgb(100%,100%,100%);stroke-opacity:1;stroke-miterlimit:4;" d="M 2433.828125 3150.507813 C 2391.015625 3119.179688 2303.046875 3133.398438 2255.3125 3135 C 2251.5625 3135.117188 2248.007813 3135 2244.609375 3134.648438 C 2244.609375 3134.648438 2206.875 3168.945313 2257.34375 3205.507813 C 2257.34375 3205.507813 2279.804688 3223.59375 2321.40625 3221.914063 C 2376.015625 3219.6875 2420.9375 3256.171875 2383.085938 3305.390625 C 2383.085938 3305.390625 2449.804688 3282.890625 2460.546875 3225.664063 C 2471.328125 3168.4375 2433.828125 3150.507813 2433.828125 3150.507813 Z M 2433.828125 3150.507813 " transform="matrix(0.1,0,0,-0.1,0,577)"/>
<path style=" stroke:none;fill-rule:nonzero;fill:rgb(0%,0%,0%);fill-opacity:1;" d="M 226.722656 249.058594 C 226.601563 246.757813 227.738281 242.402344 231.628906 239.828125 C 236.105469 236.855469 240.082031 238.671875 241.417969 239.996094 C 242.753906 241.316406 241.824219 242.398438 241.824219 242.398438 C 240.507813 243.8125 239.015625 242.753906 239.054688 242.214844 C 239.136719 241.082031 236.929688 241.40625 235.941406 242.972656 C 234.4375 245.351563 238.308594 246.460938 238.308594 246.460938 C 242.09375 251.382813 237.601563 255.035156 232.140625 254.808594 C 232.140625 254.808594 227.003906 254.648438 226.722656 249.058594 "/>
<path style="fill:none;stroke-width:16.5;stroke-linecap:butt;stroke-linejoin:miter;stroke:rgb(100%,100%,100%);stroke-opacity:1;stroke-miterlimit:4;" d="M 2267.226563 3279.414063 C 2266.015625 3302.421875 2277.382813 3345.976563 2316.289063 3371.71875 C 2361.054688 3401.445313 2400.820313 3383.28125 2414.179688 3370.039063 C 2427.539063 3356.835938 2418.242188 3346.015625 2418.242188 3346.015625 C 2405.078125 3331.875 2390.15625 3342.460938 2390.546875 3347.851563 C 2391.367188 3359.179688 2369.296875 3355.9375 2359.414063 3340.273438 C 2344.375 3316.484375 2383.085938 3305.390625 2383.085938 3305.390625 C 2420.9375 3256.171875 2376.015625 3219.648438 2321.40625 3221.914063 C 2321.40625 3221.914063 2270.039063 3223.515625 2267.226563 3279.414063 Z M 2267.226563 3279.414063 " transform="matrix(0.1,0,0,-0.1,0,577)"/>
<path style=" stroke:none;fill-rule:nonzero;fill:rgb(0%,0%,0%);fill-opacity:1;" d="M 215.441406 290.539063 C 215.441406 290.539063 210.152344 283.363281 215.855469 276.1875 C 215.855469 276.1875 218.125 273.289063 223.121094 273.308594 C 228.113281 273.335938 236.039063 275.34375 241.703125 273.890625 C 241.703125 273.890625 244.179688 273.277344 245.9375 271.847656 C 245.9375 271.847656 250.183594 273.265625 249.496094 278.886719 C 249.496094 278.886719 249.21875 282.238281 244.636719 283.730469 C 242.386719 284.46875 235.511719 282.652344 231.191406 282.804688 C 228.578125 282.898438 219.34375 282.628906 215.441406 290.539063 "/>
<path style="fill:none;stroke-width:16.5;stroke-linecap:butt;stroke-linejoin:miter;stroke:rgb(100%,100%,100%);stroke-opacity:1;stroke-miterlimit:4;" d="M 2154.414063 2864.609375 C 2154.414063 2864.609375 2101.523438 2936.367188 2158.554688 3008.125 C 2158.554688 3008.125 2181.25 3037.109375 2231.210938 3036.914063 C 2281.132813 3036.640625 2360.390625 3016.5625 2417.03125 3031.09375 C 2417.03125 3031.09375 2441.796875 3037.226563 2459.375 3051.523438 C 2459.375 3051.523438 2501.835938 3037.34375 2494.960938 2981.132813 C 2494.960938 2981.132813 2492.1875 2947.617188 2446.367188 2932.695313 C 2423.867188 2925.3125 2355.117188 2943.476563 2311.914063 2941.953125 C 2285.78125 2941.015625 2193.4375 2943.710938 2154.414063 2864.609375 Z M 2154.414063 2864.609375 " transform="matrix(0.1,0,0,-0.1,0,577)"/>
</g>
</svg>
